<?xml version="1.0" encoding="UTF-8" standalone="no"?>
<!-- Created with Inkscape (http://www.inkscape.org/) -->
<svg
   xmlns:dc="http://purl.org/dc/elements/1.1/"
   xmlns:cc="http://creativecommons.org/ns#"
   xmlns:rdf="http://www.w3.org/1999/02/22-rdf-syntax-ns#"
   xmlns:svg="http://www.w3.org/2000/svg"
   xmlns="http://www.w3.org/2000/svg"
   xmlns:sodipodi="http://sodipodi.sourceforge.net/DTD/sodipodi-0.dtd"
   xmlns:inkscape="http://www.inkscape.org/namespaces/inkscape"
   width="800"
   height="400"
   id="svg2"
   sodipodi:version="0.32"
   inkscape:version="0.46"
   version="1.0"
   sodipodi:docname="hclust-complete.svg"
   inkscape:output_extension="org.inkscape.output.svg.inkscape">
  <defs
     id="defs4">
    <inkscape:perspective
       sodipodi:type="inkscape:persp3d"
       inkscape:vp_x="0 : 526.18109 : 1"
       inkscape:vp_y="0 : 1000 : 0"
       inkscape:vp_z="744.09448 : 526.18109 : 1"
       inkscape:persp3d-origin="372.04724 : 350.78739 : 1"
       id="perspective10" />
  </defs>
  <sodipodi:namedview
     id="base"
     pagecolor="#ffffff"
     bordercolor="#666666"
     borderopacity="1.0"
     gridtolerance="10"
     guidetolerance="10"
     objecttolerance="10"
     inkscape:pageopacity="0.0"
     inkscape:pageshadow="2"
     inkscape:zoom="1.40875"
     inkscape:cx="400"
     inkscape:cy="200"
     inkscape:document-units="px"
     inkscape:current-layer="layer1"
     showgrid="true"
     width="800px"
     inkscape:object-nodes="false"
     inkscape:snap-bbox="true"
     inkscape:window-width="1224"
     inkscape:window-height="980"
     inkscape:window-x="20"
     inkscape:window-y="20">
    <inkscape:grid
       type="xygrid"
       id="grid2650"
       visible="true"
       enabled="true"
       dotted="true" />
  </sodipodi:namedview>
  <metadata
     id="metadata7">
    <rdf:RDF>
      <cc:Work
         rdf:about="">
        <dc:format>image/svg+xml</dc:format>
        <dc:type
           rdf:resource="http://purl.org/dc/dcmitype/StillImage" />
      </cc:Work>
    </rdf:RDF>
  </metadata>
  <g
     inkscape:label="Layer 1"
     inkscape:groupmode="layer"
     id="layer1">
    <path
       sodipodi:type="arc"
       style="fill:none;fill-rule:evenodd;stroke:#000000;stroke-width:2;stroke-linecap:butt;stroke-linejoin:miter;stroke-miterlimit:4;stroke-dasharray:none;stroke-opacity:1"
       id="path2654"
       sodipodi:cx="260"
       sodipodi:cy="310"
       sodipodi:rx="120"
       sodipodi:ry="120"
       d="M 380,310 A 120,120 0 1 1 140,310 A 120,120 0 1 1 380,310 z"
       transform="matrix(1,0,0,-1,-65,515)" />
    <path
       transform="matrix(1,0,0,-1,345,505)"
       d="M 380,310 A 120,120 0 1 1 140,310 A 120,120 0 1 1 380,310 z"
       sodipodi:ry="120"
       sodipodi:rx="120"
       sodipodi:cy="310"
       sodipodi:cx="260"
       id="path3426"
       style="fill:none;fill-rule:evenodd;stroke:#000000;stroke-width:2;stroke-linecap:butt;stroke-linejoin:miter;stroke-miterlimit:4;stroke-dasharray:none;stroke-opacity:1"
       sodipodi:type="arc" />
    <path
       sodipodi:type="arc"
       style="fill:#000000;fill-opacity:1;stroke:#000000;stroke-width:2;stroke-miterlimit:4;stroke-dasharray:none;stroke-opacity:1"
       id="path3430"
       sodipodi:cx="320"
       sodipodi:cy="490"
       sodipodi:rx="50"
       sodipodi:ry="50"
       d="M 370,490 A 50,50 0 1 1 270,490 A 50,50 0 1 1 370,490 z"
       transform="matrix(0.1960785,0,0,0.1960786,102.25488,38.725416)" />
    <path
       sodipodi:type="arc"
       style="fill:#000000;fill-opacity:1;stroke:#000000;stroke-width:2;stroke-miterlimit:4;stroke-dasharray:none;stroke-opacity:1"
       id="path3432"
       sodipodi:cx="320"
       sodipodi:cy="490"
       sodipodi:rx="50"
       sodipodi:ry="50"
       d="M 370,490 A 50,50 0 1 1 270,490 A 50,50 0 1 1 370,490 z"
       transform="matrix(0.1960785,0,0,0.1960786,212.45095,73.921486)" />
    <path
       sodipodi:type="arc"
       style="fill:#000000;fill-opacity:1;stroke:#000000;stroke-width:2;stroke-miterlimit:4;stroke-dasharray:none;stroke-opacity:1"
       id="path3434"
       sodipodi:cx="320"
       sodipodi:cy="490"
       sodipodi:rx="50"
       sodipodi:ry="50"
       d="M 370,490 A 50,50 0 1 1 270,490 A 50,50 0 1 1 370,490 z"
       transform="matrix(0.1960785,0,0,0.1960786,137.35183,168.14586)" />
    <path
       sodipodi:type="arc"
       style="fill:#000000;fill-opacity:1;stroke:#000000;stroke-width:2;stroke-miterlimit:4;stroke-dasharray:none;stroke-opacity:1"
       id="path3436"
       sodipodi:cx="320"
       sodipodi:cy="490"
       sodipodi:rx="50"
       sodipodi:ry="50"
       d="M 370,490 A 50,50 0 1 1 270,490 A 50,50 0 1 1 370,490 z"
       transform="matrix(0.1960785,0,0,0.1960786,65.329672,131.58077)" />
    <path
       sodipodi:type="arc"
       style="fill:#000000;fill-opacity:1;stroke:#000000;stroke-width:2;stroke-miterlimit:4;stroke-dasharray:none;stroke-opacity:1"
       id="path3438"
       sodipodi:cx="320"
       sodipodi:cy="490"
       sodipodi:rx="50"
       sodipodi:ry="50"
       d="M 370,490 A 50,50 0 1 1 270,490 A 50,50 0 1 1 370,490 z"
       transform="matrix(0.1960785,0,0,0.1960786,506.3269,181.44226)" />
    <path
       sodipodi:type="arc"
       style="fill:#000000;fill-opacity:1;stroke:#000000;stroke-width:2;stroke-miterlimit:4;stroke-dasharray:none;stroke-opacity:1"
       id="path3440"
       sodipodi:cx="320"
       sodipodi:cy="490"
       sodipodi:rx="50"
       sodipodi:ry="50"
       d="M 370,490 A 50,50 0 1 1 270,490 A 50,50 0 1 1 370,490 z"
       transform="matrix(0.1960785,0,0,0.1960786,467.25488,103.92149)" />
    <path
       sodipodi:type="arc"
       style="fill:#000000;fill-opacity:1;stroke:#000000;stroke-width:2;stroke-miterlimit:4;stroke-dasharray:none;stroke-opacity:1"
       id="path3442"
       sodipodi:cx="320"
       sodipodi:cy="490"
       sodipodi:rx="50"
       sodipodi:ry="50"
       d="M 370,490 A 50,50 0 1 1 270,490 A 50,50 0 1 1 370,490 z"
       transform="matrix(0.1960785,0,0,0.1960786,534.02773,35.181874)" />
    <path
       sodipodi:type="arc"
       style="fill:#000000;fill-opacity:1;stroke:#000000;stroke-width:2;stroke-miterlimit:4;stroke-dasharray:none;stroke-opacity:1"
       id="path3444"
       sodipodi:cx="320"
       sodipodi:cy="490"
       sodipodi:rx="50"
       sodipodi:ry="50"
       d="M 370,490 A 50,50 0 1 1 270,490 A 50,50 0 1 1 370,490 z"
       transform="matrix(0.1960785,0,0,0.1960786,599.40169,163.71373)" />
    <path
       sodipodi:type="arc"
       style="fill:#000000;fill-opacity:1;stroke:#000000;stroke-width:2;stroke-miterlimit:4;stroke-dasharray:none;stroke-opacity:1"
       id="path3446"
       sodipodi:cx="320"
       sodipodi:cy="490"
       sodipodi:rx="50"
       sodipodi:ry="50"
       d="M 370,490 A 50,50 0 1 1 270,490 A 50,50 0 1 1 370,490 z"
       transform="matrix(0.1960785,0,0,0.1960786,612.69809,52.910406)" />
    <path
       sodipodi:type="arc"
       style="fill:#000000;fill-opacity:1;stroke:#000000;stroke-width:2;stroke-miterlimit:4;stroke-dasharray:none;stroke-opacity:1"
       id="path3448"
       sodipodi:cx="320"
       sodipodi:cy="490"
       sodipodi:rx="50"
       sodipodi:ry="50"
       d="M 370,490 A 50,50 0 1 1 270,490 A 50,50 0 1 1 370,490 z"
       transform="matrix(0.1960785,0,0,0.1960786,555.08036,111.63617)" />
    <path
       style="fill:none;fill-rule:evenodd;stroke:#000000;stroke-width:1;stroke-linecap:butt;stroke-linejoin:miter;stroke-miterlimit:4;stroke-dasharray:none;stroke-opacity:1"
       d="M 127,228 L 676,149"
       id="path3450"
       sodipodi:nodetypes="cc" />
  </g>
</svg>
