<?xml version="1.0" encoding="UTF-8" standalone="no"?>
<!-- Created with Inkscape (http://www.inkscape.org/) -->
<svg
   xmlns:dc="http://purl.org/dc/elements/1.1/"
   xmlns:cc="http://creativecommons.org/ns#"
   xmlns:rdf="http://www.w3.org/1999/02/22-rdf-syntax-ns#"
   xmlns:svg="http://www.w3.org/2000/svg"
   xmlns="http://www.w3.org/2000/svg"
   xmlns:sodipodi="http://sodipodi.sourceforge.net/DTD/sodipodi-0.dtd"
   xmlns:inkscape="http://www.inkscape.org/namespaces/inkscape"
   width="800"
   height="400"
   id="svg2"
   sodipodi:version="0.32"
   inkscape:version="0.46"
   version="1.0"
   sodipodi:docname="hclust-average.svg"
   inkscape:output_extension="org.inkscape.output.svg.inkscape">
  <defs
     id="defs4">
    <inkscape:perspective
       sodipodi:type="inkscape:persp3d"
       inkscape:vp_x="0 : 526.18109 : 1"
       inkscape:vp_y="0 : 1000 : 0"
       inkscape:vp_z="744.09448 : 526.18109 : 1"
       inkscape:persp3d-origin="372.04724 : 350.78739 : 1"
       id="perspective10" />
  </defs>
  <sodipodi:namedview
     id="base"
     pagecolor="#ffffff"
     bordercolor="#666666"
     borderopacity="1.0"
     gridtolerance="10"
     guidetolerance="10"
     objecttolerance="10"
     inkscape:pageopacity="0.0"
     inkscape:pageshadow="2"
     inkscape:zoom="1.40875"
     inkscape:cx="400"
     inkscape:cy="200"
     inkscape:document-units="px"
     inkscape:current-layer="layer1"
     showgrid="true"
     width="800px"
     inkscape:object-nodes="false"
     inkscape:snap-bbox="true"
     inkscape:window-width="1224"
     inkscape:window-height="980"
     inkscape:window-x="0"
     inkscape:window-y="0">
    <inkscape:grid
       type="xygrid"
       id="grid2650"
       visible="true"
       enabled="true"
       dotted="true" />
  </sodipodi:namedview>
  <metadata
     id="metadata7">
    <rdf:RDF>
      <cc:Work
         rdf:about="">
        <dc:format>image/svg+xml</dc:format>
        <dc:type
           rdf:resource="http://purl.org/dc/dcmitype/StillImage" />
      </cc:Work>
    </rdf:RDF>
  </metadata>
  <g
     inkscape:label="Layer 1"
     inkscape:groupmode="layer"
     id="layer1">
    <path
       sodipodi:type="arc"
       style="fill:none;fill-rule:evenodd;stroke:#000000;stroke-width:2;stroke-linecap:butt;stroke-linejoin:miter;stroke-miterlimit:4;stroke-dasharray:none;stroke-opacity:1"
       id="path2654"
       sodipodi:cx="260"
       sodipodi:cy="310"
       sodipodi:rx="120"
       sodipodi:ry="120"
       d="M 380,310 A 120,120 0 1 1 140,310 A 120,120 0 1 1 380,310 z"
       transform="matrix(1,0,0,-1,-65,515)" />
    <path
       transform="matrix(1,0,0,-1,345,505)"
       d="M 380,310 A 120,120 0 1 1 140,310 A 120,120 0 1 1 380,310 z"
       sodipodi:ry="120"
       sodipodi:rx="120"
       sodipodi:cy="310"
       sodipodi:cx="260"
       id="path3426"
       style="fill:none;fill-rule:evenodd;stroke:#000000;stroke-width:2;stroke-linecap:butt;stroke-linejoin:miter;stroke-miterlimit:4;stroke-dasharray:none;stroke-opacity:1"
       sodipodi:type="arc" />
    <path
       sodipodi:type="arc"
       style="fill:#000000;fill-opacity:1;stroke:#000000;stroke-width:2;stroke-miterlimit:4;stroke-dasharray:none;stroke-opacity:1"
       id="path3430"
       sodipodi:cx="320"
       sodipodi:cy="490"
       sodipodi:rx="50"
       sodipodi:ry="50"
       d="M 370,490 A 50,50 0 1 1 270,490 A 50,50 0 1 1 370,490 z"
       transform="matrix(0.1960785,0,0,0.1960786,97.254876,43.921495)" />
    <path
       sodipodi:type="arc"
       style="fill:#000000;fill-opacity:1;stroke:#000000;stroke-width:2;stroke-miterlimit:4;stroke-dasharray:none;stroke-opacity:1"
       id="path3434"
       sodipodi:cx="320"
       sodipodi:cy="490"
       sodipodi:rx="50"
       sodipodi:ry="50"
       d="M 370,490 A 50,50 0 1 1 270,490 A 50,50 0 1 1 370,490 z"
       transform="matrix(0.1960785,0,0,0.1960786,137.25488,164.11756)" />
    <path
       sodipodi:type="arc"
       style="fill:#000000;fill-opacity:1;stroke:#000000;stroke-width:2;stroke-miterlimit:4;stroke-dasharray:none;stroke-opacity:1"
       id="path3436"
       sodipodi:cx="320"
       sodipodi:cy="490"
       sodipodi:rx="50"
       sodipodi:ry="50"
       d="M 370,490 A 50,50 0 1 1 270,490 A 50,50 0 1 1 370,490 z"
       transform="matrix(0.1960785,0,0,0.1960786,65.329672,131.58077)" />
    <path
       sodipodi:type="arc"
       style="fill:#000000;fill-opacity:1;stroke:#000000;stroke-width:2;stroke-miterlimit:4;stroke-dasharray:none;stroke-opacity:1"
       id="path3438"
       sodipodi:cx="320"
       sodipodi:cy="490"
       sodipodi:rx="50"
       sodipodi:ry="50"
       d="M 370,490 A 50,50 0 1 1 270,490 A 50,50 0 1 1 370,490 z"
       transform="matrix(0.1960785,0,0,0.1960786,507.25488,164.11756)" />
    <path
       sodipodi:type="arc"
       style="fill:#000000;fill-opacity:1;stroke:#000000;stroke-width:2;stroke-miterlimit:4;stroke-dasharray:none;stroke-opacity:1"
       id="path3440"
       sodipodi:cx="320"
       sodipodi:cy="490"
       sodipodi:rx="50"
       sodipodi:ry="50"
       d="M 370,490 A 50,50 0 1 1 270,490 A 50,50 0 1 1 370,490 z"
       transform="matrix(0.1960785,0,0,0.1960786,507.25488,14.117556)" />
    <path
       sodipodi:type="arc"
       style="fill:#000000;fill-opacity:1;stroke:#000000;stroke-width:2;stroke-miterlimit:4;stroke-dasharray:none;stroke-opacity:1"
       id="path3442"
       sodipodi:cx="320"
       sodipodi:cy="490"
       sodipodi:rx="50"
       sodipodi:ry="50"
       d="M 370,490 A 50,50 0 1 1 270,490 A 50,50 0 1 1 370,490 z"
       transform="matrix(0.1960785,0,0,0.1960786,617.0588,133.92149)" />
    <path
       sodipodi:type="arc"
       style="fill:#000000;fill-opacity:1;stroke:#000000;stroke-width:2;stroke-miterlimit:4;stroke-dasharray:none;stroke-opacity:1"
       id="path3446"
       sodipodi:cx="320"
       sodipodi:cy="490"
       sodipodi:rx="50"
       sodipodi:ry="50"
       d="M 370,490 A 50,50 0 1 1 270,490 A 50,50 0 1 1 370,490 z"
       transform="matrix(0.1960785,0,0,0.1960786,612.69809,52.910406)" />
    <path
       style="fill:none;fill-rule:evenodd;stroke:#000000;stroke-width:1;stroke-linecap:butt;stroke-linejoin:miter;stroke-miterlimit:4;stroke-dasharray:none;stroke-opacity:1"
       d="M 127,228 L 676,149"
       id="path3450"
       sodipodi:nodetypes="cc" />
    <path
       sodipodi:nodetypes="cc"
       id="path2451"
       d="M 200,260 C 353.46823,212.60313 511.19065,173.71463 676,149"
       style="fill:none;fill-rule:evenodd;stroke:#000000;stroke-width:1;stroke-linecap:butt;stroke-linejoin:miter;stroke-miterlimit:4;stroke-dasharray:none;stroke-opacity:1" />
    <path
       style="fill:none;fill-rule:evenodd;stroke:#000000;stroke-width:1;stroke-linecap:butt;stroke-linejoin:miter;stroke-miterlimit:4;stroke-dasharray:none;stroke-opacity:1"
       d="M 160,140 C 268.02774,159.32181 423.4053,187.9758 676,149"
       id="path2453"
       sodipodi:nodetypes="cc" />
    <path
       style="fill:none;fill-rule:evenodd;stroke:#000000;stroke-width:1;stroke-linecap:butt;stroke-linejoin:miter;stroke-miterlimit:4;stroke-dasharray:none;stroke-opacity:1"
       d="M 200,260 C 309.52339,244.70523 410,240 570,260"
       id="path2455"
       sodipodi:nodetypes="cc" />
    <path
       sodipodi:nodetypes="cc"
       id="path2457"
       d="M 200,260 C 336.96775,228.32259 512.63515,233.06838 680,230"
       style="fill:none;fill-rule:evenodd;stroke:#000000;stroke-width:1;stroke-linecap:butt;stroke-linejoin:miter;stroke-miterlimit:4;stroke-dasharray:none;stroke-opacity:1" />
    <path
       style="fill:none;fill-rule:evenodd;stroke:#000000;stroke-width:1;stroke-linecap:butt;stroke-linejoin:miter;stroke-miterlimit:4;stroke-dasharray:none;stroke-opacity:1"
       d="M 200,260 C 321.97544,207.5558 439.40587,146.93057 570,110"
       id="path2459"
       sodipodi:nodetypes="cc" />
    <path
       sodipodi:nodetypes="cc"
       id="path2461"
       d="M 160,140 C 287.11314,159.12789 427.42732,155.62529 570,110"
       style="fill:none;fill-rule:evenodd;stroke:#000000;stroke-width:1;stroke-linecap:butt;stroke-linejoin:miter;stroke-miterlimit:4;stroke-dasharray:none;stroke-opacity:1" />
    <path
       style="fill:none;fill-rule:evenodd;stroke:#000000;stroke-width:1;stroke-linecap:butt;stroke-linejoin:miter;stroke-miterlimit:4;stroke-dasharray:none;stroke-opacity:1"
       d="M 120,230 C 272.93051,201.94907 411.66597,153.33116 570,110"
       id="path2463"
       sodipodi:nodetypes="cc" />
    <path
       sodipodi:nodetypes="cc"
       id="path2465"
       d="M 127,228 C 356.82671,196.60389 487.27118,234.91149 680,230"
       style="fill:none;fill-rule:evenodd;stroke:#000000;stroke-width:1;stroke-linecap:butt;stroke-linejoin:miter;stroke-miterlimit:4;stroke-dasharray:none;stroke-opacity:1" />
    <path
       style="fill:none;fill-rule:evenodd;stroke:#000000;stroke-width:1;stroke-linecap:butt;stroke-linejoin:miter;stroke-miterlimit:4;stroke-dasharray:none;stroke-opacity:1"
       d="M 127,228 C 300.65421,203.2246 422.27006,244.76346 570,260"
       id="path2467"
       sodipodi:nodetypes="cc" />
    <path
       style="fill:none;fill-rule:evenodd;stroke:#000000;stroke-width:1;stroke-linecap:butt;stroke-linejoin:miter;stroke-miterlimit:4;stroke-dasharray:none;stroke-opacity:1"
       d="M 160,140 C 329.10747,179.89103 493.05431,227.96622 680,230"
       id="path3239"
       sodipodi:nodetypes="cc" />
    <path
       sodipodi:nodetypes="cc"
       id="path3241"
       d="M 160,140 C 295.60163,181.35239 422.62611,238.661 570,260"
       style="fill:none;fill-rule:evenodd;stroke:#000000;stroke-width:1;stroke-linecap:butt;stroke-linejoin:miter;stroke-miterlimit:4;stroke-dasharray:none;stroke-opacity:1" />
  </g>
</svg>
